<svg xmlns="http://www.w3.org/2000/svg" width="448" height="448" viewBox="0 0 448 448">
  <g id="Group_3" data-name="Group 3" transform="translate(-161 -288)">
    <g id="origami" transform="translate(161 288)">
      <path id="Path_1" data-name="Path 1" d="M144,384,96,424l9.224-71.432L112,352l8-6.632L154,378Z" fill="#f3af3e"/>
      <path id="Path_2" data-name="Path 2" d="M176,40A40,40,0,0,0,136,0H120A40,40,0,0,0,80,40a40,40,0,0,0,0,80h96a40,40,0,0,0,0-80Z" fill="#ba8d14"/>
      <path id="Path_3" data-name="Path 3" d="M416,384a32,32,0,0,0-64,0,32,32,0,0,0,0,64h64a32,32,0,0,0,0-64Z" fill="#ba8d14"/>
      <path id="Path_7" data-name="Path 7" d="M0,240l64,64L96,424l16-72,72,72L392,120Z" fill="#f2db92"/>
      <g id="Group_2" data-name="Group 2">
        <path id="Path_8" data-name="Path 8" d="M392,120,64,304,0,240Z" fill="#ba8d14"/>
        <path id="Path_9" data-name="Path 9" d="M184,424l-72-72L392,120Z" fill="#ba8d14"/>
      </g>
    </g>
  </g>
</svg>
